<?xml version="1.0" encoding="utf-8"?>
<!-- Generator: Adobe Illustrator 24.2.1, SVG Export Plug-In . SVG Version: 6.00 Build 0)  -->
<svg version="1.1" id="Layer_2" xmlns="http://www.w3.org/2000/svg" xmlns:xlink="http://www.w3.org/1999/xlink" x="0px" y="0px"
	 viewBox="0 0 400.49 421.78" style="enable-background:new 0 0 400.49 421.78;" xml:space="preserve">
<style type="text/css">
	.st0{fill:none;stroke:#FFFFFF;stroke-miterlimit:10;}
	.st1{fill:none;stroke:#000000;stroke-width:16;stroke-miterlimit:10;}
	.st2{fill:none;stroke:#000000;stroke-width:15;stroke-miterlimit:10;}
</style>
<path class="st0" d="M31.9,116.6"/>
<path class="st0" d="M151.51,316.68"/>
<path class="st0" d="M372.04,316.68"/>
<g>
	<g>
		<path class="st1" d="M163.62,117.15V8.43c0-0.24-0.19-0.43-0.43-0.43h-34.11c-0.21,0-0.38,0.17-0.38,0.38v108.78H73.34
			c-9.83,0-17.79,7.97-17.79,17.79c-3.07,46.7,11.6,85.52,40.79,117.88c15.85,16.96,40.57,31.7,40.57,31.7H8.18
			c-0.15,0-0.24,0.18-0.13,0.3l17.06,18.5c8.17,8.86,19.68,13.9,31.73,13.9h71.87v96.48c0,0.04,0.03,0.06,0.06,0.06h34.77
			c0.04,0,0.08-0.03,0.08-0.08v-96.47l53.06,0v96.14c0,0.23,0.18,0.41,0.41,0.41h34.44c0.04,0,0.06-0.03,0.06-0.06v-96.48h71.87
			c12.06,0,23.56-5.04,31.73-13.9l17.06-18.5c0.1-0.11,0.02-0.3-0.13-0.3H243.4c0,0,24.72-14.74,40.57-31.7
			c0,0,84.47-16.18,103.1-50.98c11.73-21.29,3.01-44.76-12.88-50.11c-20.59-6.94-41.46-0.78-49.44,1.41v-18.2
			c0-9.83-7.97-17.79-17.79-17.79H251.6V8.38c0-0.21-0.17-0.38-0.38-0.38h-34.11c-0.24,0-0.43,0.19-0.43,0.43v108.72L163.62,117.15
			L163.62,117.15z"/>
	</g>
	<line class="st1" x1="243.4" y1="284.53" x2="136.91" y2="284.53"/>
	<g>
		<path class="st2" d="M320.63,184.99c7.28-3.42,35.42-11.79,41.48-6.4c10.29,9.14-19.13,31.56-53.83,39.24
			C314.16,206.79,318.05,195.82,320.63,184.99z"/>
	</g>
</g>
</svg>
