<?xml version="1.0" encoding="UTF-8" standalone="no"?>
<!-- Created with Inkscape (http://www.inkscape.org/) -->

<svg
   width="134.71065mm"
   height="149.67871mm"
   viewBox="0 0 134.71065 149.67871"
   version="1.1"
   id="svg846"
   xmlns="http://www.w3.org/2000/svg"
   xmlns:svg="http://www.w3.org/2000/svg">
  <defs
     id="defs843" />
  <g
     id="layer1"
     transform="translate(-42.92885,-32.152716)">
    <path
       id="path2231"
       style="fill:#8036de;stroke-width:0.45357;fill-opacity:1"
       d="m 57.44323,32.152716 v 27.743008 27.74301 l -4.89479,5.0276 c -2.69193,2.765208 -5.95742,6.313717 -7.25694,7.885826 l -2.36265,2.85874 v 37.26543 37.26542 l 1.90841,1.9451 1.90894,1.94458 h 63.50154 63.50206 l 1.94458,-1.90892 1.94511,-1.90841 -0.0119,-36.30476 -0.0119,-36.30477 -7.22387,-7.483776 -7.22436,-7.483781 -0.0212,-29.141891 -0.0212,-29.142406 h -52.84123 z m 6.35,5.443078 h 46.49067 46.49124 v 37.797693 37.797693 l -14.62754,7.87652 c -8.04522,4.33214 -18.52766,9.87731 -23.29419,12.32225 -4.76649,2.44493 -8.76297,4.44521 -8.8811,4.44521 -0.23466,0 -24.09831,-13.65973 -37.67471,-21.5651 l -8.50437,-4.95164 V 74.457108 Z m 64.55727,11.484053 c 0.0462,0.119113 0.0897,0.233505 0.14005,0.353984 0.006,0.02768 0.01,0.04432 0.0156,0.07131 0.0485,-0.01756 0.10834,-0.0388 0.15814,-0.05684 -0.10345,-0.133809 -0.20024,-0.246544 -0.31369,-0.368453 z M 96.64236,72.254661 c -0.0425,0.04404 -0.0907,0.0861 -0.13436,0.129707 0.0984,0.0098 0.21963,0.02236 0.33436,0.03049 -0.027,-0.03898 -0.068,-0.07905 -0.093,-0.117822 -0.0402,-0.01418 -0.067,-0.02817 -0.10697,-0.04237 z M 69.68949,86.127715 v 3.175 3.175 h 26.76065 26.76064 v -3.175 -3.175 H 96.45014 Z m 57.15,0 v 2.872692 c 0,1.579944 0.136,3.008694 0.30232,3.175 0.16631,0.166312 5.57492,0.302308 12.01941,0.302308 h 11.71763 v -3.175 -3.175 H 138.8589 Z m -57.15,9.978718 v 3.175 3.174997 h 12.01942 12.01994 v -3.174997 -3.175 H 81.70891 Z m 27.66756,0 v 3.175 3.174997 h 26.76118 26.76062 v -3.174997 -3.175 h -26.76062 z m -40.03942,1.360641 c 0.0691,0 0.1256,2.245254 0.1256,4.989356 0,2.74411 -0.15346,4.98763 -0.34057,4.98523 -0.18709,-0.002 -1.64701,-0.8337 -3.24425,-1.84692 l -2.90369,-1.84226 3.11867,-3.14244 c 1.71527,-1.728522 3.17516,-3.142966 3.24424,-3.142966 z m 105.80751,2.525945 2.52801,2.478921 c 3.78905,3.71567 3.8045,3.79822 0.99579,5.40897 -1.31432,0.75376 -2.64509,1.37281 -2.95691,1.37511 -0.41685,0.003 -0.56689,-1.22291 -0.56689,-4.62969 z m -93.43565,6.999051 v 2.7218 2.72128 h 40.59441 40.59495 v -2.72128 -2.7218 H 110.2839 Z m -20.86435,3.0887 1.92752,1.12087 c 54.26297,31.54463 56.84221,32.98352 59.12559,32.98352 1.89402,0 11.18814,-4.62803 39.15989,-19.49908 12.28098,-6.52911 22.46442,-11.73514 22.63013,-11.56931 0.41177,0.41199 0.37322,59.56898 -0.0398,61.065 -0.244,0.88375 -0.7154,1.26939 -1.80869,1.47898 -2.1177,0.40603 -89.01298,0.68026 -105.93099,0.33435 -11.88516,-0.243 -14.26152,-0.40058 -14.62082,-0.96893 -0.25905,-0.40977 -0.43164,-13.40909 -0.43564,-32.81195 z m 38.55371,5.9831 v 3.40134 3.40186 h 22.90505 22.90559 v -3.40186 -3.40134 H 110.2839 Z M 54.72141,161.4208 v 2.64583 c 0,1.4552 0.13599,2.78184 0.30231,2.94814 0.16632,0.16631 4.96318,0.30231 10.65929,0.30231 h 10.35648 v -2.94815 -2.94813 H 65.38073 Z" />
    <ellipse
       style="fill:none;stroke:#8036de;stroke-width:4.42376;stroke-miterlimit:4;stroke-dasharray:none;stroke-opacity:1"
       id="path2621"
       cx="110.28386"
       cy="59.322205"
       rx="15.740117"
       ry="15.662001" />
    <rect
       style="mix-blend-mode:saturation;fill:#8036de;stroke:none;stroke-width:1.31609;stroke-miterlimit:4;stroke-dasharray:none;fill-opacity:1"
       id="rect2747"
       width="5.0619678"
       height="13.25456"
       x="107.75285"
       y="56.290241" />
    <rect
       style="mix-blend-mode:saturation;fill:#8036de;stroke:none;stroke-width:0.815992;stroke-miterlimit:4;stroke-dasharray:none;fill-opacity:1"
       id="rect2875"
       width="5.0619678"
       height="5.0952659"
       x="107.75285"
       y="48.97826" />
  </g>
</svg>
