<?xml version="1.0" encoding="UTF-8" standalone="no"?>
<!-- Created with Inkscape (http://www.inkscape.org/) -->

<svg
   width="133.68457mm"
   height="148.38947mm"
   viewBox="0 0 133.68457 148.38947"
   version="1.1"
   id="svg5"
   xmlns="http://www.w3.org/2000/svg"
   xmlns:svg="http://www.w3.org/2000/svg">
  <defs
     id="defs2" />
  <g
     id="layer1"
     transform="translate(-28.261183,-41.972898)">
    <path
       style="fill:#8036de;stroke-width:0.668421;fill-opacity:1"
       d="m 30.215029,188.40851 -1.953846,-1.95384 v -36.75455 -36.75455 l 2.601094,-3.23502 c 1.430601,-1.77927 4.739286,-5.33248 7.352631,-7.89604 l 4.751537,-4.661023 V 69.563193 41.972898 H 95.103296 147.2404 v 28.834875 28.834875 l 7.35267,7.589892 7.35268,7.58989 v 35.69401 35.69402 l -1.93925,2.07595 -1.93924,2.07595 H 95.117916 32.168875 Z m 125.581211,-4.19562 c 0.60076,-0.60076 0.8021,-8.57064 0.8021,-31.75 0,-17.02134 -0.14212,-30.94789 -0.31581,-30.94789 -0.17371,0 -13.52911,7.06855 -29.67868,15.70789 -20.42365,10.92579 -30.001604,15.70789 -31.460964,15.70789 -2.6755,0 -2.1126,0.30161 -34.129068,-18.28663 l -27.071056,-15.71702 -0.17358,32.13212 c -0.125162,23.16923 0.0375,32.38645 0.58316,33.04393 1.047218,1.26182 120.184148,1.36945 121.443898,0.10971 z M 40.292761,172.98342 v -2.67369 h 10.360526 10.360531 v 2.67369 2.67368 H 50.653287 40.292761 Z m 78.203189,-38.26711 22.69732,-12.19868 0.0156,-37.59868 0.0157,-37.598684 H 95.103296 48.982234 v 36.664284 36.66428 l 22.559221,13.11338 c 12.407561,7.21237 22.941261,13.12225 23.408211,13.13309 0.46695,0.0108 11.062764,-5.46971 23.546284,-12.17899 z m -46.118969,-6.18289 v -3.0079 H 95.103296 117.8297 v 3.0079 3.00789 H 95.103296 72.376981 Z m -17.378956,-9.69211 v -2.67368 h 40.105271 40.105454 v 2.67368 2.67369 H 95.103296 54.998025 Z m 0,-10.36052 v -3.0079 H 66.6954 78.392766 v 3.0079 3.00789 H 66.6954 54.998025 Z m 27.405271,0 v -3.0079 h 26.402674 26.40278 v 3.0079 3.00789 H 108.80597 82.403296 Z M 54.998025,98.454476 v -3.007895 h 26.402641 26.402674 v 3.007895 3.007894 H 81.400666 54.998025 Z m 56.815855,0 v -3.007895 h 11.69744 11.69743 v 3.007895 3.007894 H 123.51132 111.81388 Z M 88.641306,90.867184 c -4.49238,-1.552454 -7.91187,-4.209506 -10.3353,-8.030856 -2.602742,-4.104098 -3.441488,-7.525472 -3.131799,-12.775093 0.721861,-12.236488 11.963389,-20.617658 24.236649,-18.069738 4.227664,0.877656 4.924104,1.764039 3.702734,4.712657 -0.77609,1.873645 -0.99248,1.972948 -3.251134,1.491942 -4.02179,-0.856491 -8.28102,-0.46722 -11.19218,1.022905 -13.046163,6.677888 -8.12183,26.665775 6.52052,26.466839 6.804984,-0.09246 12.908434,-5.229186 13.760374,-11.580935 l 0.36504,-2.721481 h 3.16781 3.16782 l -0.57005,3.051293 c -1.53963,8.241203 -6.90131,14.344508 -14.58534,16.602774 -4.633734,1.361819 -7.542514,1.320032 -11.855144,-0.170307 z m 1.39098,-14.910763 c -2.35779,-2.264062 -4.28688,-4.467551 -4.28688,-4.896642 0,-0.894493 2.79566,-3.686882 3.69121,-3.686882 0.32844,0 1.74248,1.118383 3.14233,2.485295 l 2.54517,2.485293 7.681044,-7.659238 c 8.18207,-8.158806 8.5347,-8.313418 10.88563,-4.772749 0.95268,1.434804 0.65118,1.825757 -8.34809,10.824982 -5.13506,5.135029 -9.716044,9.336417 -10.179994,9.336417 -0.46395,0 -2.77264,-1.852414 -5.13042,-4.116476 z M 150.5638,117.51402 c 1.43095,-0.73001 2.75901,-1.5818 2.95127,-1.89285 0.19224,-0.31107 -1.14092,-2.03359 -2.96257,-3.82785 l -3.3121,-3.26228 v 5.15514 c 0,2.83532 0.16238,5.15513 0.36084,5.15513 0.19847,0 1.53161,-0.59728 2.96256,-1.32729 z M 42.966445,111.3467 v -5.48934 l -3.342105,3.29185 c -1.838158,1.81052 -3.342105,3.50621 -3.342105,3.76821 0,0.47204 5.218774,3.72318 6.182894,3.85177 0.275724,0.0368 0.501316,-2.40334 0.501316,-5.42249 z"
       id="path926" />
  </g>
</svg>
