<svg width="18" height="18" viewBox="0 0 18 18" fill="none" xmlns="http://www.w3.org/2000/svg">
<path d="M0 4C0 1.79086 1.79086 0 4 0H14C16.2091 0 18 1.79086 18 4V14C18 16.2091 16.2091 18 14 18H4C1.79086 18 0 16.2091 0 14V4Z" fill="#1B1C31"/>
<path d="M9.7 6.9H8.3V5.5H9.7V6.9ZM9.7 12.5H8.3V8.3H9.7V12.5ZM9 2C8.08075 2 7.17049 2.18106 6.32122 2.53284C5.47194 2.88463 4.70026 3.40024 4.05025 4.05025C2.7375 5.36301 2 7.14348 2 9C2 10.8565 2.7375 12.637 4.05025 13.9497C4.70026 14.5998 5.47194 15.1154 6.32122 15.4672C7.17049 15.8189 8.08075 16 9 16C10.8565 16 12.637 15.2625 13.9497 13.9497C15.2625 12.637 16 10.8565 16 9C16 8.08075 15.8189 7.17049 15.4672 6.32122C15.1154 5.47194 14.5998 4.70026 13.9497 4.05025C13.2997 3.40024 12.5281 2.88463 11.6788 2.53284C10.8295 2.18106 9.91925 2 9 2Z" fill="#F5F4FA"/>
</svg>
