<?xml version="1.0" encoding="UTF-8" standalone="no"?>
<svg
   stroke="currentColor"
   fill="currentColor"
   stroke-width="0"
   viewBox="0 0 512 512"
   color="#fff"
   height="35"
   width="35"
   style="color: #fff;"
   version="1.1"
   id="svg4"
   xmlns="http://www.w3.org/2000/svg"
   xmlns:svg="http://www.w3.org/2000/svg">
  <defs
     id="defs8" />
  <rect
     style="fill:#f57059;stroke:#f57059;stroke-width:0;fill-opacity:1"
     id="rect844"
     width="516.9325"
     height="511.01349"
     x="-3.9460499"
     y="1.973025" />
  <path
     d="m 384.18067,206.85008 c -2.52347,-2.08614 -60.02333,-48.32576 -72.66379,-58.37612 -11.8754,-9.49215 -32.18029,-30.01032 -55.51687,-30.01032 -23.21195,0 -43.32181,20.26351 -55.51688,30.01032 -13.14278,10.44954 -70.41754,56.51616 -72.60953,58.3181 a 25.790216,25.790216 0 0 0 -9.40996,19.91967 v 141.03655 c 0,14.24255 11.54553,25.78808 25.78807,25.78808 H 367.7483 c 14.24253,0 25.78806,-11.54553 25.78806,-25.78808 V 226.72462 a 25.788067,25.788067 0 0 0 -9.35569,-19.87454 z m -16.43237,157.6747 a 3.2235084,3.2235084 0 0 1 -3.22351,3.2235 H 147.47522 a 3.2235084,3.2235084 0 0 1 -3.22351,-3.2235 V 228.24934 c 0,-0.97403 0.4384,-1.89435 1.19592,-2.50627 8.52618,-6.88435 58.4492,-47.03852 71.11275,-57.10606 9.75917,-7.79499 26.75942,-24.38531 39.43963,-24.38531 12.72909,0 30.00925,16.85304 39.43962,24.38531 12.66463,10.06862 62.5914,50.22924 71.11382,57.11841 a 3.2181359,3.2181359 0 0 1 1.19485,2.50521 z M 350.56109,263.68054 c 2.28278,2.77168 1.86158,6.87413 -0.93751,9.12306 -15.56685,12.50882 -31.84504,25.57156 -38.1067,30.54973 -12.19507,9.74735 -32.30493,30.01087 -55.51687,30.01087 -23.34465,0 -43.67155,-20.54288 -55.51688,-30.01087 -6.05965,-4.81754 -22.42702,-17.95118 -38.10563,-30.5508 -2.79908,-2.24948 -3.21975,-6.35139 -0.9375,-9.12307 l 8.19738,-9.95419 c 2.24464,-2.72548 6.26274,-3.13916 9.01454,-0.92729 15.37507,12.35732 31.46466,25.26962 37.90846,30.39285 9.43037,7.53226 26.71053,24.38531 39.43963,24.38531 12.68021,0 29.68099,-16.59033 39.43962,-24.38531 6.4438,-5.12268 22.53448,-18.03553 37.91007,-30.39125 2.7518,-2.21132 6.76991,-1.79763 9.014,0.92784 z"
     id="path2"
     style="stroke-width:0" />
</svg>
