<svg width="104" height="147" viewBox="0 0 104 147" fill="none" xmlns="http://www.w3.org/2000/svg">
<path opacity="0.05" d="M73.592 58.34C82.704 61.196 90.048 66.092 95.624 73.028C101.2 79.964 103.988 88.328 103.988 98.12C103.988 113.488 98.956 125.32 88.892 133.616C78.828 141.912 66.384 146.06 51.56 146.06C39.728 146.06 29.188 143.34 19.94 137.9C10.828 132.46 4.232 124.436 0.152 113.828L31.976 95.672C34.968 105.6 41.496 110.564 51.56 110.564C56.728 110.564 60.672 109.34 63.392 106.892C66.248 104.444 67.676 101.18 67.676 97.1C67.676 93.02 66.248 89.824 63.392 87.512C60.672 85.064 56.728 83.84 51.56 83.84H43.808L29.732 63.032L52.58 35.084H4.64V0.19999H97.46V28.964L73.592 58.34Z" fill="black"/>
</svg>
