<?xml version="1.0" encoding="UTF-8" standalone="no"?>
<svg
   width="43.491699"
   height="39"
   viewBox="0 0 43.491699 39"
   fill="none"
   class="css-1bncsgz-logo"
   version="1.1"
   id="svg42"
   xmlns="http://www.w3.org/2000/svg"
   xmlns:svg="http://www.w3.org/2000/svg">
  <defs
     id="defs46" />
  <path
     d="M 43.4917,0.64258 V 15.4488 L 0,32.9439 Z"
     fill="#00c9ff"
     id="path2" />
  <path
     d="m 35.3383,0 v 25.5417 c 0,3.5693 -1.432,6.9925 -3.981,9.5164 C 28.8083,37.5821 25.3511,39 21.7463,39 18.1415,39 14.6843,37.5821 12.1353,35.0581 9.58631,32.5342 8.1543,29.111 8.1543,25.5417 V 14.7791 l 8.1538,-4.4432 v 15.2058 c -0.0763,0.6636 -0.0102,1.3357 0.194,1.9723 0.2043,0.6366 0.542,1.2232 0.9912,1.7215 0.4492,0.4983 0.9996,0.897 1.6152,1.17 0.6157,0.273 1.2826,0.4142 1.9572,0.4142 0.6745,0 1.3415,-0.1412 1.9571,-0.4142 0.6156,-0.273 1.1661,-0.6717 1.6152,-1.17 0.4492,-0.4983 0.787,-1.0849 0.9912,-1.7215 0.2043,-0.6366 0.2704,-1.3087 0.194,-1.9723 V 5.15439 Z"
     fill="#0d67fe"
     id="path4" />
</svg>
