<?xml version="1.0" encoding="UTF-8" standalone="no"?>
<svg
   width="43.491699"
   height="39"
   viewBox="0 0 43.491699 39"
   fill="none"
   class="css-1bncsgz-logo"
   version="1.1"
   id="svg42"
   xmlns="http://www.w3.org/2000/svg"
   xmlns:svg="http://www.w3.org/2000/svg">
  <defs
     id="defs46" />
  <rect
     style="fill:#0d67fe;stroke:#f57059;stroke-width:0;stroke-miterlimit:4;stroke-dasharray:none;fill-opacity:1"
     id="rect845"
     width="43.433525"
     height="38.774567"
     x="-0.0949995"
     y="0.20521544" />
  <path
     d="M 32.425603,9.488427 V 18.6666 L 5.4656939,29.511573 Z"
     fill="#00c9ff"
     id="path2"
     style="fill:#ffffff;stroke-width:0.619886" />
  <path
     d="M 27.371143,7.4122175 V 23.245166 c 0,2.212561 -0.887677,4.334556 -2.467767,5.899086 -1.58009,1.564593 -3.723161,2.44353 -5.957727,2.44353 -2.234566,0 -4.377637,-0.878937 -5.957727,-2.44353 -1.580084,-1.56453 -2.467768,-3.686525 -2.467768,-5.899086 v -6.671588 l 5.054429,-2.754277 v 9.425865 c -0.0473,0.411357 -0.0063,0.827983 0.120258,1.222602 0.126643,0.39462 0.335979,0.758245 0.614432,1.067134 0.278453,0.30889 0.619638,0.556038 1.00124,0.725267 0.381664,0.16923 0.795066,0.256757 1.213241,0.256757 0.418114,0 0.831578,-0.08753 1.21318,-0.256757 0.381602,-0.169229 0.722849,-0.416376 1.00124,-0.725267 0.278453,-0.308889 0.487851,-0.672514 0.614431,-1.067134 0.126643,-0.394619 0.167618,-0.811245 0.120258,-1.222602 V 10.607353 Z"
     fill="#0d67fe"
     id="path4"
     style="fill:#ffffff;stroke-width:0.619886" />
</svg>
