<?xml version="1.0" standalone="no"?>
<!DOCTYPE svg PUBLIC "-//W3C//DTD SVG 20010904//EN"
 "http://www.w3.org/TR/2001/REC-SVG-20010904/DTD/svg10.dtd">
<svg version="1.0" xmlns="http://www.w3.org/2000/svg"
 width="3000.000000pt" height="3000.000000pt" viewBox="0 0 3000.000000 3000.000000"
 preserveAspectRatio="xMidYMid meet">
<metadata>
Created by potrace 1.14, written by Peter Selinger 2001-2017
</metadata>
<g transform="translate(0.000000,3000.000000) scale(0.100000,-0.100000)"
fill="#000000" stroke="none">
<path d="M3459 27426 c-2 -2 -46 -7 -96 -10 -51 -4 -103 -9 -115 -11 -13 -2
-59 -9 -103 -15 -124 -18 -268 -47 -410 -85 -138 -36 -394 -121 -410 -136 -5
-5 -15 -9 -23 -9 -16 0 -70 -24 -237 -105 -958 -468 -1667 -1329 -1939 -2357
-38 -144 -80 -347 -91 -443 -4 -33 -8 -71 -11 -85 -2 -14 -7 -63 -11 -110 -10
-109 -10 -18008 -1 -18115 10 -104 32 -274 43 -325 3 -14 8 -41 11 -60 3 -19
19 -91 35 -160 17 -69 32 -132 34 -140 10 -47 94 -291 132 -385 71 -174 191
-416 267 -535 150 -234 263 -387 405 -545 51 -56 259 -264 307 -305 388 -338
833 -591 1309 -743 139 -45 354 -99 440 -112 11 -2 47 -8 80 -13 33 -6 80 -13
105 -16 25 -4 55 -8 66 -10 12 -3 66 -8 120 -13 129 -11 23138 -11 23269 0 55
5 102 10 105 12 3 1 36 6 75 10 38 4 72 8 75 10 3 1 25 6 50 9 54 7 60 8 185
36 54 11 101 23 105 25 3 2 19 6 33 9 45 8 286 86 382 123 512 200 972 508
1342 900 61 65 122 132 135 148 12 17 27 35 34 40 20 19 141 180 205 275 101
149 141 216 229 385 123 239 219 487 285 740 19 72 36 141 39 155 2 14 9 48
15 75 6 28 12 59 14 70 3 11 10 61 16 110 7 50 14 104 17 120 2 17 7 66 11
110 10 103 10 17992 1 18105 -10 116 -30 265 -44 334 -2 11 -7 37 -10 56 -3
19 -7 43 -10 52 -3 10 -7 30 -10 45 -21 119 -105 394 -172 563 -69 176 -191
424 -277 560 -46 74 -159 245 -165 250 -3 3 -17 21 -30 40 -13 19 -29 40 -35
46 -5 7 -23 29 -40 50 -118 148 -316 355 -457 478 -171 149 -402 312 -597 423
-97 55 -374 193 -388 193 -5 0 -21 7 -37 15 -30 16 -366 132 -401 139 -11 2
-58 14 -105 26 -103 27 -99 26 -235 50 -134 23 -163 28 -240 35 -33 4 -73 9
-90 13 -31 7 -23178 15 -23186 8z"/>
</g>
</svg>
