<svg width="103" height="146" viewBox="0 0 103 146" fill="none" xmlns="http://www.w3.org/2000/svg">
<path opacity="0.05" d="M2.784 146V119.48L50.112 69.5C54.872 64.332 58.34 60.184 60.516 57.056C62.692 53.792 63.78 50.596 63.78 47.468C63.78 43.932 62.624 41.076 60.312 38.9C58.136 36.724 55.076 35.636 51.132 35.636C42.7 35.636 36.308 40.6 31.956 50.528L0.54 32.984C5.164 22.24 11.964 14.08 20.94 8.50399C29.916 2.92799 39.844 0.139993 50.724 0.139993C64.324 0.139993 75.952 4.21999 85.608 12.38C95.4 20.404 100.296 31.42 100.296 45.428C100.296 53.724 98.324 61.408 94.38 68.48C90.572 75.416 84.928 82.76 77.448 90.512L58.068 110.708H102.744V146H2.784Z" fill="black"/>
</svg>
